# Blender v2.72 (sub 0) OBJ File: 'pawn.blend'
# www.blender.org
o Circle
v 0.000000 0.000000 -1.000000
v -0.587785 0.000000 -0.809017
v -0.951057 0.000000 -0.309017
v -0.951056 0.000000 0.309017
v -0.587785 0.000000 0.809017
v 0.000000 0.000000 1.000000
v 0.587785 0.000000 0.809017
v 0.951056 0.000000 0.309017
v 0.951056 0.000000 -0.309017
v 0.587785 0.000000 -0.809017
v 0.000000 0.200000 -1.000000
v -0.587785 0.200000 -0.809017
v -0.951057 0.200000 -0.309017
v -0.951056 0.200000 0.309017
v -0.587785 0.200000 0.809017
v 0.000000 0.200000 1.000000
v 0.587785 0.200000 0.809017
v 0.951056 0.200000 0.309017
v 0.951056 0.200000 -0.309017
v 0.587785 0.200000 -0.809017
v -0.000000 0.400000 -0.600000
v -0.352671 0.400000 -0.485410
v -0.570634 0.400000 -0.185410
v -0.570634 0.400000 0.185410
v -0.352671 0.400000 0.485410
v 0.000000 0.400000 0.600000
v 0.352671 0.400000 0.485410
v 0.570634 0.400000 0.185410
v 0.570634 0.400000 -0.185410
v 0.352671 0.400000 -0.485410
v -0.000000 1.000000 -0.600000
v -0.352671 1.000000 -0.485410
v -0.570634 1.000000 -0.185410
v -0.570634 1.000000 0.185410
v -0.352671 1.000000 0.485410
v 0.000000 1.000000 0.600000
v 0.352671 1.000000 0.485410
v 0.570634 1.000000 0.185410
v 0.570634 1.000000 -0.185410
v 0.352671 1.000000 -0.485410
v -0.000000 1.100000 -0.300000
v -0.176336 1.100000 -0.242705
v -0.285317 1.100000 -0.092705
v -0.285317 1.100000 0.092705
v -0.176336 1.100000 0.242705
v 0.000000 1.100000 0.300000
v 0.176336 1.100000 0.242705
v 0.285317 1.100000 0.092705
v 0.285317 1.100000 -0.092705
v 0.176335 1.100000 -0.242705
v -0.000000 2.400000 -0.180000
v -0.105801 2.400000 -0.145623
v -0.171190 2.400000 -0.055623
v -0.171190 2.400000 0.055623
v -0.105801 2.400000 0.145623
v 0.000000 2.400000 0.180000
v 0.105801 2.400000 0.145623
v 0.171190 2.400000 0.055623
v 0.171190 2.400000 -0.055623
v 0.105801 2.400000 -0.145623
v -0.000000 2.400000 -0.612000
v -0.359725 2.400000 -0.495118
v -0.582047 2.400000 -0.189118
v -0.582047 2.400000 0.189118
v -0.359725 2.400000 0.495118
v 0.000000 2.400000 0.612000
v 0.359725 2.400000 0.495118
v 0.582047 2.400000 0.189118
v 0.582047 2.400000 -0.189119
v 0.359724 2.400000 -0.495119
v -0.000000 2.500000 -0.612000
v -0.359725 2.500000 -0.495118
v -0.582047 2.500000 -0.189118
v -0.582047 2.500000 0.189118
v -0.359725 2.500000 0.495118
v 0.000000 2.500000 0.612000
v 0.359725 2.500000 0.495118
v 0.582047 2.500000 0.189118
v 0.582047 2.500000 -0.189119
v 0.359724 2.500000 -0.495119
v -0.000000 2.700000 -0.183600
v -0.107917 2.700000 -0.148536
v -0.174614 2.700000 -0.056736
v -0.174614 2.700000 0.056736
v -0.107917 2.700000 0.148535
v 0.000000 2.700000 0.183600
v 0.107917 2.700000 0.148535
v 0.174614 2.700000 0.056736
v 0.174614 2.700000 -0.056736
v 0.107917 2.700000 -0.148536
v -0.262865 2.574674 0.000000
v -0.344095 2.737132 0.249998
v 0.131434 2.737132 0.404506
v -0.081228 2.574673 -0.249998
v -0.344095 2.737132 -0.249998
v -0.081228 2.574673 0.249998
v 0.131434 2.737132 -0.404506
v 0.475529 3.000000 0.154506
v 0.212661 2.574673 0.154506
v 0.475529 3.000000 -0.154506
v 0.000000 3.000000 0.500000
v 0.425324 2.737132 0.000000
v 0.293893 3.000000 0.404508
v -0.475529 3.000000 0.154506
v 0.212661 2.574673 -0.154506
v -0.293893 3.000000 -0.404508
v 0.000000 3.000000 -0.500000
v 0.344095 3.262868 0.249998
v -0.293893 3.000000 0.404508
v -0.131434 3.262869 -0.404506
v 0.344095 3.262868 -0.249998
v 0.293893 3.000000 -0.404508
v -0.212661 3.425328 0.154506
v -0.212661 3.425328 -0.154506
v -0.425324 3.262868 0.000000
v 0.262865 3.425326 0.000000
v -0.475529 3.000000 -0.154506
v -0.131434 3.262869 0.404506
v 0.081228 3.425328 0.249998
v 0.081228 3.425328 -0.249998
v 0.000000 3.500000 0.000000
v 0.447213 3.223608 0.000000
v 0.138194 3.223610 -0.425325
v -0.361804 3.223610 -0.262863
v -0.361804 3.223610 0.262863
v 0.138194 3.223610 0.425325
v 0.361804 2.776391 -0.262863
v -0.138194 2.776390 -0.425325
v -0.447213 2.776393 0.000000
v -0.138194 2.776390 0.425325
v 0.361804 2.776391 0.262863
v 0.000000 2.500000 0.000000
v 0.000000 1.020811 0.537568
v 0.315974 1.020811 0.434901
v -0.000000 1.020811 -0.537568
v -0.315974 1.020811 -0.434901
v 0.315974 1.020811 -0.434901
v -0.315974 1.020811 0.434901
v 0.511257 1.020811 -0.166118
v -0.511257 1.020811 0.166118
v 0.511257 1.020811 0.166118
v -0.511257 1.020811 -0.166118
v 0.000000 1.174568 0.293117
v 0.172290 1.174568 0.237136
v -0.000000 1.174568 -0.293117
v -0.172290 1.174568 -0.237136
v 0.172290 1.174568 -0.237137
v -0.172290 1.174568 0.237136
v 0.278771 1.174568 -0.090578
v -0.278771 1.174568 0.090578
v 0.278771 1.174568 0.090578
v -0.278771 1.174568 -0.090578
v 0.111722 2.290886 0.153771
v -0.111722 2.290886 -0.153772
v 0.000000 2.290886 0.190072
v -0.000000 2.290886 -0.190072
v 0.111722 2.290886 -0.153772
v -0.111722 2.290886 0.153772
v 0.180769 2.290886 -0.058736
v -0.180769 2.290886 0.058735
v 0.180769 2.290886 0.058735
v -0.180769 2.290886 -0.058736
vt 0.999902 0.480531
vt 0.902197 0.482610
vt 0.828316 0.245465
vt 0.000098 0.479574
vt 0.098065 0.476568
vt 0.174074 0.713045
vt 0.096728 0.772792
vt 0.373921 0.859682
vt 0.657167 0.002249
vt 0.906435 0.186289
vt 0.346334 0.953272
vt 0.621528 0.861323
vt 0.345564 0.000098
vt 0.628636 0.096453
vt 0.654003 0.953272
vt 0.823104 0.717523
vt 0.094294 0.184391
vt 0.378566 0.093633
vt 0.903347 0.773026
vt 0.175662 0.239803
vt 0.731768 0.480773
vt 0.688954 0.344274
vt 0.268971 0.477292
vt 0.312492 0.613503
vt 0.573870 0.258843
vt 0.427525 0.698110
vt 0.570213 0.699113
vt 0.430343 0.257576
vt 0.686353 0.616193
vt 0.313851 0.341265
vt 0.573832 0.480916
vt 0.561024 0.437369
vt 0.427173 0.476828
vt 0.440009 0.520315
vt 0.475920 0.547963
vt 0.525046 0.409659
vt 0.521211 0.549235
vt 0.479676 0.408417
vt 0.558610 0.523638
vt 0.442318 0.434084
vt 0.554074 0.442116
vt 0.565455 0.480661
vt 0.536149 0.479400
vt 0.435575 0.477183
vt 0.464923 0.478593
vt 0.471498 0.499608
vt 0.446979 0.515679
vt 0.489157 0.512749
vt 0.529577 0.458369
vt 0.511900 0.445217
vt 0.478807 0.540130
vt 0.511160 0.513002
vt 0.522196 0.417620
vt 0.489881 0.444973
vt 0.518920 0.541212
vt 0.529111 0.500266
vt 0.482027 0.416562
vt 0.471941 0.457724
vt 0.552016 0.518507
vt 0.448954 0.439323
vt 0.500428 0.478469
vt 0.500975 0.478517
vt 0.500832 0.478982
vt 0.500313 0.480161
vt 0.500522 0.479892
vt 0.500815 0.479920
vt 0.500858 0.480212
vt 0.501050 0.479761
vt 0.500538 0.478959
vt 0.500296 0.479118
vt 0.501320 0.479929
vt 0.501146 0.479478
vt 0.499963 0.478754
vt 0.500199 0.479398
vt 0.501526 0.479420
vt 0.501064 0.479180
vt 0.499760 0.479261
vt 0.500286 0.479692
vt 0.501394 0.478881
vt 0.499894 0.479798
vt 0.500726 0.479647
vt 0.500690 0.479656
vt 0.500831 0.479824
vt 0.500869 0.479832
vt 0.500824 0.479745
vt 0.500855 0.479873
vt 0.500736 0.479778
vt 0.500923 0.480086
vt 0.500993 0.480365
vt 0.000000 0.000000
vt 1.000000 0.000000
vt 1.000000 1.000000
vt 0.528041 0.479404
vt 0.522991 0.463166
vt 0.473067 0.478711
vt 0.478119 0.494940
vt 0.491735 0.505101
vt 0.509364 0.452998
vt 0.508719 0.505317
vt 0.492371 0.452787
vt 0.522587 0.495504
vt 0.478509 0.462610
vn 0.587800 0.000000 0.809000
vn 0.514300 0.484100 0.707900
vn 0.000000 0.484100 0.875000
vn -0.587800 0.000000 -0.809000
vn -0.514300 0.484100 -0.707900
vn 0.000000 0.484100 -0.875000
vn -0.000000 0.000000 -1.000000
vn 0.514300 0.484100 -0.707900
vn -0.587800 0.000000 0.809000
vn 0.000000 0.000000 1.000000
vn 0.587800 0.000000 -0.809000
vn 0.832200 0.484100 -0.270400
vn -0.951100 0.000000 0.309000
vn -0.514300 0.484100 0.707900
vn 0.951100 0.000000 -0.309000
vn 0.832200 0.484100 0.270400
vn -0.951100 0.000000 -0.309000
vn -0.832200 0.484100 0.270400
vn 0.951100 0.000000 0.309000
vn -0.832200 0.484100 -0.270400
vn 0.479700 0.578000 0.660200
vn 0.000000 0.578000 0.816000
vn -0.479700 0.578000 -0.660200
vn 0.000000 0.578000 -0.816000
vn -0.479700 0.578000 0.660200
vn 0.479700 0.578000 -0.660200
vn 0.776100 0.578000 -0.252100
vn -0.776100 0.578000 0.252100
vn 0.776100 0.578000 0.252100
vn -0.776100 0.578000 -0.252100
vn 0.496400 0.535600 0.683200
vn 0.000000 0.535600 0.844400
vn -0.496400 0.535600 -0.683200
vn 0.000000 0.535600 -0.844400
vn 0.496400 0.535600 -0.683200
vn -0.496400 0.535600 0.683200
vn 0.803100 0.535600 -0.260900
vn -0.803100 0.535600 0.260900
vn 0.803100 0.535600 0.260900
vn -0.803100 0.535600 -0.260900
vn 0.000000 0.948700 0.316200
vn 0.185900 0.948700 0.255800
vn 0.431200 0.679600 0.593500
vn -0.185900 0.948700 -0.255800
vn -0.431200 0.679600 -0.593500
vn 0.000000 0.679600 -0.733600
vn 0.000000 0.948700 -0.316200
vn 0.431200 0.679600 -0.593500
vn 0.000000 0.679600 0.733600
vn -0.431200 0.679600 0.593500
vn 0.185900 0.948700 -0.255800
vn 0.697700 0.679600 -0.226700
vn -0.185900 0.948700 0.255800
vn -0.697700 0.679600 0.226700
vn 0.300700 0.948700 -0.097700
vn 0.697700 0.679600 0.226700
vn -0.300700 0.948700 0.097700
vn -0.697700 0.679600 -0.226700
vn 0.300700 0.948700 0.097700
vn -0.300700 0.948700 -0.097700
vn 0.000000 0.091900 0.995800
vn 0.585300 0.091900 0.805600
vn 0.385300 -0.755100 0.530400
vn -0.585300 0.091900 -0.805600
vn -0.385300 -0.755100 -0.530400
vn 0.000000 -0.755100 -0.655600
vn 0.000000 0.091900 -0.995800
vn 0.385300 -0.755100 -0.530400
vn 0.000000 -0.755100 0.655600
vn -0.385300 -0.755100 0.530400
vn 0.585300 0.091900 -0.805600
vn 0.623500 -0.755100 -0.202600
vn -0.585300 0.091900 0.805600
vn -0.623500 -0.755100 0.202600
vn 0.947000 0.091900 -0.307700
vn 0.623500 -0.755100 0.202600
vn -0.947000 0.091900 0.307700
vn -0.623500 -0.755100 -0.202600
vn 0.947000 0.091900 0.307700
vn -0.947000 0.091900 -0.307700
vn 0.449800 -0.643700 0.619100
vn 0.000000 -0.643700 0.765300
vn -0.449800 -0.643700 -0.619100
vn 0.000000 -0.643700 -0.765300
vn 0.449800 -0.643700 -0.619100
vn -0.449800 -0.643700 0.619100
vn 0.727800 -0.643700 -0.236500
vn -0.727800 -0.643700 0.236500
vn 0.727800 -0.643700 0.236500
vn -0.727800 -0.643700 -0.236500
vn 0.511000 0.494000 0.703400
vn 0.000000 0.494000 0.869400
vn -0.511000 0.494000 -0.703400
vn 0.000000 0.494000 -0.869400
vn 0.511000 0.494000 -0.703400
vn -0.511000 0.494000 0.703400
vn 0.826900 0.494000 -0.268700
vn -0.826900 0.494000 0.268700
vn 0.826900 0.494000 0.268700
vn -0.826900 0.494000 -0.268700
vn 0.248600 0.906100 0.342200
vn 0.000000 0.906100 0.423000
vn -0.248600 0.906100 -0.342200
vn -0.000000 0.906100 -0.423000
vn 0.248600 0.906100 -0.342200
vn 0.402300 0.906100 -0.130700
vn -0.248600 0.906100 0.342200
vn -0.402300 0.906100 0.130700
vn 0.402300 0.906100 0.130700
vn -0.402300 0.906100 -0.130700
vn 0.425300 -0.850600 0.309000
vn 0.723600 -0.447200 0.525700
vn 0.262900 -0.525700 0.809000
vn -0.162500 -0.850600 0.500000
vn -0.276400 -0.447200 0.850600
vn -0.688200 -0.525700 0.500000
vn 0.000000 -1.000000 0.000000
vn 0.425300 -0.850600 -0.309000
vn -0.525700 -0.850600 0.000000
vn -0.162500 -0.850600 -0.500000
vn -0.688200 -0.525700 -0.500000
vn -0.276400 -0.447200 -0.850600
vn -0.951000 0.000000 -0.309000
vn 0.262900 -0.525700 -0.809000
vn -0.894400 -0.447200 0.000000
vn -0.723600 0.447200 -0.525700
vn 0.688200 0.525700 0.500000
vn 0.276400 0.447200 0.850600
vn -0.951000 0.000000 0.309000
vn -0.850600 0.525700 0.000000
vn 0.894400 0.447200 0.000000
vn 0.525700 0.850600 0.000000
vn 0.951000 0.000000 -0.309000
vn 0.688200 0.525700 -0.500000
vn 0.162500 0.850600 -0.500000
vn -0.262900 0.525700 -0.809000
vn -0.425300 0.850600 -0.309000
vn 0.850600 -0.525700 0.000000
vn 0.723600 -0.447200 -0.525700
vn 0.276400 0.447200 -0.850600
vn 0.951000 0.000000 0.309000
vn -0.723600 0.447200 0.525700
vn 0.162500 0.850600 0.500000
vn -0.262900 0.525700 0.809000
vn -0.425300 0.850600 0.309000
vn 0.000000 1.000000 0.000000
s 1
f 7/1/1 17/2/2 16/3/3
f 2/4/4 12/5/5 11/6/6
f 1/7/7 11/6/6 20/8/8
f 5/9/9 6/10/10 16/3/3
f 10/11/11 20/8/8 19/12/12
f 4/13/13 5/9/9 15/14/14
f 9/15/15 19/12/12 18/16/16
f 3/17/17 4/13/13 14/18/18
f 8/19/19 18/16/16 17/2/2
f 3/17/17 13/20/20 12/5/5
f 17/2/2 27/21/21 26/22/22
f 12/5/5 22/23/23 21/24/24
f 20/8/8 11/6/6 21/24/24
f 16/3/3 26/22/22 25/25/25
f 20/8/8 30/26/26 29/27/27
f 15/14/14 25/25/25 24/28/28
f 19/12/12 29/27/27 28/29/29
f 14/18/18 24/28/28 23/30/30
f 18/16/16 28/29/29 27/21/21
f 13/20/20 23/30/30 22/23/23
f 27/21/21 37/31/31 36/32/32
f 22/23/23 32/33/33 31/34/34
f 21/24/24 31/34/34 40/35/35
f 26/22/22 36/32/32 35/36/36
f 30/26/26 40/35/35 39/37/37
f 25/25/25 35/36/36 34/38/38
f 29/27/27 39/37/37 38/39/39
f 24/28/28 34/38/38 33/40/40
f 28/29/29 38/39/39 37/31/31
f 23/30/30 33/40/40 32/33/33
f 133/41/41 134/42/42 47/43/43
f 136/44/44 42/45/45 41/46/46
f 135/47/47 41/46/46 50/48/48
f 133/41/41 46/49/49 45/50/50
f 137/51/51 50/48/48 49/52/52
f 138/53/53 45/50/50 44/54/54
f 139/55/55 49/52/52 48/56/56
f 140/57/57 44/54/54 43/58/58
f 141/59/59 48/56/56 47/43/43
f 136/44/44 142/60/60 43/58/58
f 155/61/61 153/62/62 57/63/63
f 154/64/64 52/65/65 51/66/66
f 156/67/67 51/66/66 60/68/68
f 155/61/61 56/69/69 55/70/70
f 157/71/71 60/68/68 59/72/72
f 158/73/73 55/70/70 54/74/74
f 159/75/75 59/72/72 58/76/76
f 160/77/77 54/74/74 53/78/78
f 153/62/62 161/79/79 58/76/76
f 154/64/64 162/80/80 53/78/78
f 57/63/63 67/81/81 66/82/82
f 52/65/65 62/83/83 61/84/84
f 51/66/66 61/84/84 70/84/85
f 56/69/69 66/82/82 65/82/86
f 60/68/68 70/84/85 69/85/87
f 55/70/70 65/82/86 64/82/88
f 59/72/72 69/85/87 68/85/89
f 54/74/74 64/82/88 63/83/90
f 58/76/76 68/85/89 67/81/81
f 53/78/78 63/83/90 62/83/83
f 67/81/81 77/82/91 76/82/92
f 62/83/83 72/86/93 71/86/94
f 61/84/84 71/86/94 80/86/95
f 66/82/82 76/82/92 75/82/96
f 70/84/85 80/86/95 79/83/97
f 65/82/86 75/82/96 74/87/98
f 69/85/87 79/83/97 78/85/99
f 64/82/88 74/87/98 73/83/100
f 68/85/89 78/85/99 77/82/91
f 63/83/90 73/83/100 72/86/93
f 77/82/91 87/83/101 86/83/102
f 72/86/93 82/86/103 81/88/104
f 80/86/95 71/86/94 81/88/104
f 75/82/96 76/82/92 86/83/102
f 80/86/95 90/89/105 89/88/106
f 75/82/96 85/83/107 84/83/108
f 79/83/97 89/88/106 88/66/109
f 74/87/98 84/83/108 83/66/110
f 78/85/99 88/66/109 87/83/101
f 72/86/93 73/83/100 83/66/110
f 99/90/111 131/91/112 93/92/113
f 96/90/114 130/91/115 92/92/116
f 96/90/114 99/91/111 93/92/113
f 96/90/114 93/91/113 130/92/115
f 99/90/111 132/91/117 105/92/118
f 91/90/119 96/91/114 92/92/116
f 94/90/120 95/91/121 128/92/122
f 106/90/4 95/91/121 117/92/123
f 93/90/113 131/91/112 103/92/1
f 97/90/124 128/91/122 107/92/7
f 91/90/119 92/91/116 129/92/125
f 94/90/120 128/91/122 97/92/124
f 106/90/4 117/91/123 124/92/126
f 101/90/10 93/91/113 103/92/1
f 112/90/11 97/91/124 107/92/7
f 103/90/1 108/91/127 126/92/128
f 117/90/123 104/91/129 115/92/130
f 108/90/127 122/91/131 116/92/132
f 100/90/133 111/91/134 122/92/131
f 120/90/135 110/91/136 114/92/137
f 94/90/120 91/91/119 95/92/121
f 122/90/131 111/91/134 116/92/132
f 102/90/138 105/91/118 127/92/139
f 104/90/129 92/91/116 109/92/9
f 124/90/126 115/91/130 114/92/137
f 102/90/138 99/91/111 105/92/118
f 95/90/121 129/91/125 117/92/123
f 123/90/140 110/91/136 120/92/135
f 105/90/118 94/91/120 97/92/124
f 98/90/141 100/91/133 122/92/131
f 128/90/122 106/91/4 107/92/7
f 102/90/138 127/91/139 100/92/133
f 104/90/129 109/91/9 125/92/142
f 127/90/139 112/91/11 100/92/133
f 101/90/10 103/91/1 126/92/128
f 107/90/7 110/91/136 123/92/140
f 126/90/128 108/91/127 119/92/143
f 112/90/11 107/91/7 123/92/140
f 98/90/141 122/91/131 108/92/127
f 125/90/142 118/91/144 113/92/145
f 91/90/119 129/91/125 95/92/121
f 109/90/9 118/91/144 125/92/142
f 129/90/125 104/91/129 117/92/123
f 105/90/118 97/91/124 127/92/139
f 113/90/145 118/91/144 119/92/143
f 130/90/115 101/91/10 109/92/9
f 98/90/141 102/91/138 100/92/133
f 112/90/11 123/91/140 111/92/134
f 131/90/112 98/91/141 103/92/1
f 92/90/116 130/91/115 109/92/9
f 103/90/1 98/91/141 108/92/127
f 127/90/139 97/91/124 112/92/11
f 120/90/135 114/91/137 121/92/146
f 104/90/129 125/91/142 115/92/130
f 129/90/125 92/91/116 104/92/129
f 109/90/9 101/91/10 118/92/144
f 113/90/145 119/91/143 121/92/146
f 130/90/115 93/91/113 101/92/10
f 118/90/144 126/91/128 119/92/143
f 100/90/133 112/91/11 111/92/134
f 131/90/112 102/91/138 98/92/141
f 119/90/143 116/91/132 121/92/146
f 110/90/136 124/91/126 114/92/137
f 128/90/122 95/91/121 106/92/4
f 107/90/7 106/91/4 110/92/136
f 114/90/137 115/91/130 113/92/145
f 132/90/117 94/91/120 105/92/118
f 115/90/130 125/91/142 113/92/145
f 111/90/134 123/91/140 120/92/135
f 132/90/117 91/91/119 94/92/120
f 101/90/10 126/91/128 118/92/144
f 116/90/132 111/91/134 120/92/135
f 132/90/117 96/91/114 91/92/119
f 117/90/123 115/91/130 124/92/126
f 116/90/132 120/91/135 121/92/146
f 131/90/112 99/91/111 102/92/138
f 119/90/143 108/91/127 116/92/132
f 114/90/137 113/91/145 121/92/146
f 132/90/117 99/91/111 96/92/114
f 106/90/4 124/91/126 110/92/136
f 37/31/31 134/42/42 133/41/41
f 32/33/33 136/44/44 135/47/47
f 31/34/34 135/47/47 137/51/51
f 36/32/32 133/41/41 138/53/53
f 40/35/35 137/51/51 139/55/55
f 35/36/36 138/53/53 140/57/57
f 39/37/37 139/55/55 141/59/59
f 34/38/38 140/57/57 142/60/60
f 38/39/39 141/59/59 134/42/42
f 32/33/33 33/40/40 142/60/60
f 47/43/43 144/93/62 143/94/61
f 41/46/46 42/45/45 146/95/64
f 41/46/46 145/96/67 147/97/71
f 46/49/49 143/94/61 148/98/73
f 50/48/48 147/97/71 149/99/75
f 45/50/50 148/98/73 150/100/77
f 48/56/56 49/52/52 149/99/75
f 43/58/58 44/54/54 150/100/77
f 48/56/56 151/101/79 144/93/62
f 43/58/58 152/102/80 146/95/64
f 143/94/61 144/93/62 153/62/62
f 146/95/64 154/64/64 156/67/67
f 145/96/67 156/67/67 157/71/71
f 143/94/61 155/61/61 158/73/73
f 147/97/71 157/71/71 159/75/75
f 148/98/73 158/73/73 160/77/77
f 149/99/75 159/75/75 161/79/79
f 150/100/77 160/77/77 162/80/80
f 151/101/79 161/79/79 153/62/62
f 152/102/80 162/80/80 154/64/64
f 6/10/10 7/1/1 16/3/3
f 1/7/7 2/4/4 11/6/6
f 10/11/11 1/7/7 20/8/8
f 15/14/14 5/9/9 16/3/3
f 9/15/15 10/11/11 19/12/12
f 14/18/18 4/13/13 15/14/14
f 8/19/19 9/15/15 18/16/16
f 13/20/20 3/17/17 14/18/18
f 7/1/1 8/19/19 17/2/2
f 2/4/4 3/17/17 12/5/5
f 16/3/3 17/2/2 26/22/22
f 11/6/6 12/5/5 21/24/24
f 30/26/26 20/8/8 21/24/24
f 15/14/14 16/3/3 25/25/25
f 19/12/12 20/8/8 29/27/27
f 14/18/18 15/14/14 24/28/28
f 18/16/16 19/12/12 28/29/29
f 13/20/20 14/18/18 23/30/30
f 17/2/2 18/16/16 27/21/21
f 12/5/5 13/20/20 22/23/23
f 26/22/22 27/21/21 36/32/32
f 21/24/24 22/23/23 31/34/34
f 30/26/26 21/24/24 40/35/35
f 25/25/25 26/22/22 35/36/36
f 29/27/27 30/26/26 39/37/37
f 24/28/28 25/25/25 34/38/38
f 28/29/29 29/27/27 38/39/39
f 23/30/30 24/28/28 33/40/40
f 27/21/21 28/29/29 37/31/31
f 22/23/23 23/30/30 32/33/33
f 46/49/49 133/41/41 47/43/43
f 135/47/47 136/44/44 41/46/46
f 137/51/51 135/47/47 50/48/48
f 138/53/53 133/41/41 45/50/50
f 139/55/55 137/51/51 49/52/52
f 140/57/57 138/53/53 44/54/54
f 141/59/59 139/55/55 48/56/56
f 142/60/60 140/57/57 43/58/58
f 134/42/42 141/59/59 47/43/43
f 42/45/45 136/44/44 43/58/58
f 56/69/69 155/61/61 57/63/63
f 156/67/67 154/64/64 51/66/66
f 157/71/71 156/67/67 60/68/68
f 158/73/73 155/61/61 55/70/70
f 159/75/75 157/71/71 59/72/72
f 160/77/77 158/73/73 54/74/74
f 161/79/79 159/75/75 58/76/76
f 162/80/80 160/77/77 53/78/78
f 57/63/63 153/62/62 58/76/76
f 52/65/65 154/64/64 53/78/78
f 56/69/69 57/63/63 66/82/82
f 51/66/66 52/65/65 61/84/84
f 60/68/68 51/66/66 70/84/85
f 55/70/70 56/69/69 65/82/86
f 59/72/72 60/68/68 69/85/87
f 54/74/74 55/70/70 64/82/88
f 58/76/76 59/72/72 68/85/89
f 53/78/78 54/74/74 63/83/90
f 57/63/63 58/76/76 67/81/81
f 52/65/65 53/78/78 62/83/83
f 66/82/82 67/81/81 76/82/92
f 61/84/84 62/83/83 71/86/94
f 70/84/85 61/84/84 80/86/95
f 65/82/86 66/82/82 75/82/96
f 69/85/87 70/84/85 79/83/97
f 64/82/88 65/82/86 74/87/98
f 68/85/89 69/85/87 78/85/99
f 63/83/90 64/82/88 73/83/100
f 67/81/81 68/85/89 77/82/91
f 62/83/83 63/83/90 72/86/93
f 76/82/92 77/82/91 86/83/102
f 71/86/94 72/86/93 81/88/104
f 90/89/105 80/86/95 81/88/104
f 85/83/107 75/82/96 86/83/102
f 79/83/97 80/86/95 89/88/106
f 74/87/98 75/82/96 84/83/108
f 78/85/99 79/83/97 88/66/109
f 73/83/100 74/87/98 83/66/110
f 77/82/91 78/85/99 87/83/101
f 82/86/103 72/86/93 83/66/110
f 36/32/32 37/31/31 133/41/41
f 31/34/34 32/33/33 135/47/47
f 40/35/35 31/34/34 137/51/51
f 35/36/36 36/32/32 138/53/53
f 39/37/37 40/35/35 139/55/55
f 34/38/38 35/36/36 140/57/57
f 38/39/39 39/37/37 141/59/59
f 33/40/40 34/38/38 142/60/60
f 37/31/31 38/39/39 134/42/42
f 136/44/44 32/33/33 142/60/60
f 46/49/49 47/43/43 143/94/61
f 145/96/67 41/46/46 146/95/64
f 50/48/48 41/46/46 147/97/71
f 45/50/50 46/49/49 148/98/73
f 49/52/52 50/48/48 149/99/75
f 44/54/54 45/50/50 150/100/77
f 151/101/79 48/56/56 149/99/75
f 152/102/80 43/58/58 150/100/77
f 47/43/43 48/56/56 144/93/62
f 42/45/45 43/58/58 146/95/64
f 155/61/61 143/94/61 153/62/62
f 145/96/67 146/95/64 156/67/67
f 147/97/71 145/96/67 157/71/71
f 148/98/73 143/94/61 158/73/73
f 149/99/75 147/97/71 159/75/75
f 150/100/77 148/98/73 160/77/77
f 151/101/79 149/99/75 161/79/79
f 152/102/80 150/100/77 162/80/80
f 144/93/62 151/101/79 153/62/62
f 146/95/64 152/102/80 154/64/64
